# xmcd
#
# Track frame offsets: 
#        150
#        22455
#        40706
#        66935
#        85295
#        116346
#        131126
#        149925
#        165314
#        182906
#        198201
#
# Disc length: 2900 seconds
#
# Revision: 0
# Processed by: cddbd v1.5.2PL0 Copyright (c) Steve Scherf et al.
# Submitted via: ExactAudioCopy v0.99pb5
#
DISCID=a30b520b
DTITLE=Marcos Coll - Under the wings CD1
DYEAR=2011
DGENRE=Blues
TTITLE0=The way you make me feel
TTITLE1=Natural man
TTITLE2=Blues with a feeling
TTITLE3=Little Sophie
TTITLE4=After midnight
TTITLE5=The scratch
TTITLE6=The hucklebuck
TTITLE7=My babe
TTITLE8=Big road blues
TTITLE9=Belleza de barrio
TTITLE10=You know I love you babe
EXTD=
EXTT0=
EXTT1=
EXTT2=
EXTT3=
EXTT4=
EXTT5=
EXTT6=
EXTT7=
EXTT8=
EXTT9=
EXTT10=
PLAYORDER=
